<svg xmlns="http://www.w3.org/2000/svg" width="53.267" height="41.099" viewBox="0 0 53.267 41.099">
  <g id="dippel-oil" transform="translate(0 -58.461)">
    <g id="Group_911" data-name="Group 911" transform="translate(0 58.461)">
      <path id="Path_616" data-name="Path 616" d="M36.094,78.832a.792.792,0,0,1-.792-.792V61.72a1.677,1.677,0,0,0-1.675-1.675H.792a.792.792,0,1,1,0-1.584H33.627a3.262,3.262,0,0,1,3.259,3.259V78.04A.792.792,0,0,1,36.094,78.832Z" transform="translate(0 -58.461)" fill="#b7c8ea"/>
    </g>
    <g id="Group_912" data-name="Group 912" transform="translate(10.256 64.082)">
      <path id="Path_617" data-name="Path 617" d="M127.947,127.223a.792.792,0,0,1-.792-.792v-10.7a1.677,1.677,0,0,0-1.675-1.675H101.808a1.677,1.677,0,0,0-1.675,1.675v4.792a.792.792,0,0,1-1.584,0v-4.792a3.262,3.262,0,0,1,3.259-3.259H125.48a3.262,3.262,0,0,1,3.259,3.259v10.7A.791.791,0,0,1,127.947,127.223Z" transform="translate(-98.549 -112.473)" fill="#c3d5ef"/>
    </g>
    <path id="Path_618" data-name="Path 618" d="M77.956,185.169H70.542v-4.651a.831.831,0,0,1,.831-.831h5.751a.831.831,0,0,1,.831.831Z" transform="translate(-63.2 -108.61)" fill="#365e7d"/>
    <path id="Path_619" data-name="Path 619" d="M118.085,179.687H116.26a.831.831,0,0,1,.831.831v4.651h1.825v-4.651A.831.831,0,0,0,118.085,179.687Z" transform="translate(-104.16 -108.61)" fill="#2b4d66"/>
    <path id="Path_620" data-name="Path 620" d="M335.515,239.066h-7.174v-1.931a.693.693,0,0,1,.693-.693h5.788a.693.693,0,0,1,.693.693Z" transform="translate(-294.169 -159.459)" fill="#365e7d"/>
    <path id="Path_621" data-name="Path 621" d="M373.559,236.443h-1.981a.693.693,0,0,1,.693.693v1.931h1.981v-1.931A.693.693,0,0,0,373.559,236.443Z" transform="translate(-332.907 -159.459)" fill="#2b4d66"/>
    <path id="Path_622" data-name="Path 622" d="M44.859,230.716H28.745V213.353a5.493,5.493,0,0,1,5.494-5.494h5.127a5.494,5.494,0,0,1,5.494,5.494v17.364Z" transform="translate(-25.753 -133.85)" fill="#eab14d"/>
    <path id="Path_623" data-name="Path 623" d="M112.268,207.859h-2.152a5.494,5.494,0,0,1,5.494,5.494v17.364h2.152V213.353A5.494,5.494,0,0,0,112.268,207.859Z" transform="translate(-98.656 -133.85)" fill="#e49542"/>
    <path id="Path_624" data-name="Path 624" d="M237.524,276.216H221.071a7.282,7.282,0,1,1,0-14.565h16.453a7.282,7.282,0,1,1,0,14.565Z" transform="translate(-191.539 -182.043)" fill="#eab14d"/>
    <path id="Path_625" data-name="Path 625" d="M422.406,261.65h-2.259a7.282,7.282,0,1,1,0,14.565h2.259a7.282,7.282,0,1,0,0-14.565Z" transform="translate(-376.421 -182.042)" fill="#e49542"/>
    <path id="Path_626" data-name="Path 626" d="M27.025,430.178H8.063a.813.813,0,0,1-.813-.813V428.3a.813.813,0,0,1,.813-.813H27.025a.813.813,0,0,1,.813.813v1.067A.813.813,0,0,1,27.025,430.178Z" transform="translate(-6.495 -330.618)" fill="#365e7d"/>
    <path id="Path_627" data-name="Path 627" d="M179.819,427.486h-2.026a.813.813,0,0,1,.813.813v1.067a.813.813,0,0,1-.813.813h2.026a.813.813,0,0,0,.813-.813V428.3A.813.813,0,0,0,179.819,427.486Z" transform="translate(-159.289 -330.619)" fill="#2b4d66"/>
    <path id="Path_628" data-name="Path 628" d="M266.743,430.179H243.519a.9.9,0,0,1-.9-.9v-.9a.9.9,0,0,1,.9-.9h23.223a.9.9,0,0,1,.9.9v.9A.9.9,0,0,1,266.743,430.179Z" transform="translate(-217.372 -330.619)" fill="#365e7d"/>
    <path id="Path_629" data-name="Path 629" d="M456.417,427.486h-2.086a.9.9,0,0,1,.9.9v.9a.9.9,0,0,1-.9.9h2.086a.9.9,0,0,0,.9-.9v-.9A.9.9,0,0,0,456.417,427.486Z" transform="translate(-407.047 -330.619)" fill="#2b4d66"/>
    <g id="Group_913" data-name="Group 913" transform="translate(1.746 85.518)">
      <path id="Path_630" data-name="Path 630" d="M34.591,320.02H17.57a.792.792,0,0,1,0-1.584H34.591a.792.792,0,0,1,0,1.584Z" transform="translate(-16.778 -318.436)" fill="#f1cb86"/>
    </g>
    <path id="Path_631" data-name="Path 631" d="M299.453,401.6H312.64v2.694H299.453Z" transform="translate(-268.288 -307.425)" fill="#c3d5ef"/>
    <path id="Path_632" data-name="Path 632" d="M405.585,401.6h2.141v2.694h-2.141Z" transform="translate(-363.374 -307.425)" fill="#b7c8ea"/>
    <g id="Group_916" data-name="Group 916" transform="translate(27.774 78.404)">
      <g id="Group_914" data-name="Group 914" transform="translate(0 0)">
        <path id="Path_633" data-name="Path 633" d="M267.664,267.06a.792.792,0,0,1-.792-.792V250.881a.792.792,0,0,1,1.584,0v15.387A.792.792,0,0,1,267.664,267.06Z" transform="translate(-266.872 -250.089)" fill="#f1cb86"/>
      </g>
      <g id="Group_915" data-name="Group 915" transform="translate(18.385 0)">
        <path id="Path_634" data-name="Path 634" d="M444.315,267.06a.792.792,0,0,1-.792-.792V250.881a.792.792,0,0,1,1.584,0v15.387A.792.792,0,0,1,444.315,267.06Z" transform="translate(-443.523 -250.089)" fill="#f1cb86"/>
      </g>
    </g>
    <g id="Group_917" data-name="Group 917" transform="translate(35.009 83.613)">
      <path id="Path_635" data-name="Path 635" d="M339.14,306.69a2.752,2.752,0,0,1-2.749-2.749c0-1.341,1.044-3.8,2.749-3.8s2.749,2.464,2.749,3.8A2.752,2.752,0,0,1,339.14,306.69Zm0-4.97c-.4,0-1.165,1.328-1.165,2.221a1.165,1.165,0,0,0,2.331,0,3.459,3.459,0,0,0-.469-1.518c-.3-.516-.579-.7-.7-.7Z" transform="translate(-336.391 -300.136)" fill="#df6b57"/>
    </g>
  </g>
</svg>
