<svg xmlns="http://www.w3.org/2000/svg" width="43.57" height="47.371" viewBox="0 0 43.57 47.371">
  <g id="fuel_3_" data-name="fuel (3)" transform="translate(-20.545)">
    <g id="Group_918" data-name="Group 918" transform="translate(46.205 3.946)">
      <path id="Path_636" data-name="Path 636" d="M309.722,82.126a6,6,0,0,1-4.581-1.666c-1.992-2.128-1.755-5.7-1.5-9.486.081-1.224.164-2.463.164-3.654,0-10.856-3.715-10.856-4.934-10.856a.987.987,0,1,1,0-1.974c6.908,0,6.908,9.656,6.908,12.83,0,1.234-.083,2.515-.168,3.784-.221,3.344-.43,6.5.975,8.006a4.1,4.1,0,0,0,3.14,1.042,2.649,2.649,0,0,0,2.142-.847c1.735-2.015.934-7.378.347-11.294a35.519,35.519,0,0,1-.515-4.638V57.452a.987.987,0,0,1,.395-.789c1.928-1.433,1.776-2.566,1.64-3.472a5.12,5.12,0,0,1-.061-.671A16.041,16.041,0,0,0,302.593,44.6a.988.988,0,1,1,.444-1.924c8.7,2,12.607,8.42,12.607,9.845a3.128,3.128,0,0,0,.043.395,4.883,4.883,0,0,1-2.017,5.019v5.442a35.393,35.393,0,0,0,.493,4.342c.677,4.54,1.522,10.175-.805,12.873A4.566,4.566,0,0,1,309.722,82.126Z" transform="translate(-297.879 -42.648)" fill="#455a64"/>
      <path id="Path_637" data-name="Path 637" d="M410.339,97.3a.987.987,0,0,1-.7-.288c-5.511-5.511-4.842-8.4-1.974-11.264a.987.987,0,0,1,1.4,1.4c-1.672,1.672-3.249,3.249,1.974,8.474a.987.987,0,0,1-.7,1.686Z" transform="translate(-395.535 -81.512)" fill="#455a64"/>
    </g>
    <path id="Path_638" data-name="Path 638" d="M62.6,0H46.813a4.934,4.934,0,0,0-4.934,4.934v37.5a.987.987,0,0,0,.987.987H66.552a.987.987,0,0,0,.987-.987V4.934A4.935,4.935,0,0,0,62.6,0Z" transform="translate(-19.36)" fill="#f44336"/>
    <path id="Path_639" data-name="Path 639" d="M85.532,42.667h15.79a.987.987,0,0,1,.987.987V55.5a.987.987,0,0,1-.987.987H85.532a.987.987,0,0,1-.987-.987V43.654A.987.987,0,0,1,85.532,42.667Z" transform="translate(-58.079 -38.719)" fill="#cfd8dc"/>
    <path id="Path_640" data-name="Path 640" d="M47.191,448H23.506a2.961,2.961,0,0,0-2.961,2.961v1.974a.987.987,0,0,0,.987.987H49.165a.987.987,0,0,0,.987-.987v-1.974A2.961,2.961,0,0,0,47.191,448Z" transform="translate(0 -406.55)" fill="#455a64"/>
  </g>
</svg>
