<svg xmlns="http://www.w3.org/2000/svg" width="38.612" height="38.611" viewBox="0 0 38.612 38.611">
  <g id="location_2_" data-name="location (2)" transform="translate(-6.306 -6.31)">
    <path id="Path_650" data-name="Path 650" d="M40.144,84.289H30.053a61.214,61.214,0,0,1-4.441,6.147,61.213,61.213,0,0,1-4.441-6.147H11.08L6.306,96.806H44.918Z" transform="translate(0 -51.885)" fill="#dfeef4"/>
    <path id="Path_651" data-name="Path 651" d="M43.566,6.31A10.277,10.277,0,0,0,33.289,16.586c-.06,9.8,10.276,21.965,10.276,21.965S53.9,26.391,53.842,16.586A10.277,10.277,0,0,0,43.566,6.31Zm0,14.637a4.36,4.36,0,1,1,4.36-4.36A4.36,4.36,0,0,1,43.566,20.947Z" transform="translate(-17.954 0)" fill="#f45858"/>
    <path id="Path_652" data-name="Path 652" d="M57.5,87.191,38.229,94.044,30.72,84.29h6.7a61.154,61.154,0,0,0,4.441,6.147A61.155,61.155,0,0,0,46.3,84.29H56.389Z" transform="translate(-16.244 -51.886)" fill="#f2da30"/>
    <path id="Path_653" data-name="Path 653" d="M29.96,108.2l19.073-6.784,5.222,6.784Z" transform="translate(-15.739 -63.283)" fill="#3ea2e5"/>
  </g>
</svg>
