<svg xmlns="http://www.w3.org/2000/svg" width="33.651" height="44.177" viewBox="0 0 33.651 44.177">
  <g id="policy" transform="translate(-61)">
    <path id="Path_641" data-name="Path 641" d="M84.3,0H65.746A4.751,4.751,0,0,0,61,4.746V39.432a4.751,4.751,0,0,0,4.746,4.746h24.16a4.751,4.751,0,0,0,4.746-4.746V10.354Z" transform="translate(0)" fill="#fffa8c"/>
    <path id="Path_642" data-name="Path 642" d="M256,0V44.177h12.08a4.751,4.751,0,0,0,4.746-4.746V10.354L262.471,0Z" transform="translate(-178.175)" fill="#ffc178"/>
    <g id="Group_919" data-name="Group 919" transform="translate(67.903 13.978)">
      <path id="Path_643" data-name="Path 643" d="M150.923,187.022a1.294,1.294,0,0,1-.372-.055A13.4,13.4,0,0,1,141,174.131v-7.386a1.294,1.294,0,0,1,1.294-1.294,4.267,4.267,0,0,0,3.837-2.372l.182-.364a1.294,1.294,0,0,1,1.158-.716h6.9a1.294,1.294,0,0,1,1.158.715l.182.364a4.267,4.267,0,0,0,3.837,2.372,1.294,1.294,0,0,1,1.294,1.294v7.386a13.4,13.4,0,0,1-9.551,12.836A1.294,1.294,0,0,1,150.923,187.022Z" transform="translate(-141 -162)" fill="#9ddff6"/>
      <path id="Path_644" data-name="Path 644" d="M264.628,165.451a4.267,4.267,0,0,1-3.837-2.371l-.182-.364a1.294,1.294,0,0,0-1.158-.716H256v25.022a1.294,1.294,0,0,0,.372-.055,13.4,13.4,0,0,0,9.551-12.836v-7.386A1.294,1.294,0,0,0,264.628,165.451Z" transform="translate(-246.077 -162)" fill="#6ba7ff"/>
      <path id="Path_645" data-name="Path 645" d="M171,195.331v6.212a10.743,10.743,0,0,0,7.334,10.238,10.743,10.743,0,0,0,7.334-10.238v-6.212A6.829,6.829,0,0,1,181,192H175.67A6.829,6.829,0,0,1,171,195.331Z" transform="translate(-168.411 -189.411)" fill="#f5f5ff"/>
      <path id="Path_646" data-name="Path 646" d="M258.664,192H256v19.781a10.743,10.743,0,0,0,7.334-10.238v-6.212A6.829,6.829,0,0,1,258.664,192Z" transform="translate(-246.077 -189.411)" fill="#e2e7fa"/>
      <path id="Path_647" data-name="Path 647" d="M202.309,271.185a1.289,1.289,0,0,1-.915-.379l-2.44-2.44a1.294,1.294,0,1,1,1.83-1.83l1.525,1.525,3.966-3.966a1.294,1.294,0,1,1,1.83,1.83l-4.881,4.881A1.29,1.29,0,0,1,202.309,271.185Z" transform="translate(-193.607 -254.939)" fill="#6b61b1"/>
      <path id="Path_648" data-name="Path 648" d="M258.746,264.095,256,266.84V270.5l4.576-4.576a1.294,1.294,0,0,0-1.83-1.83Z" transform="translate(-246.077 -254.939)" fill="#453d81"/>
    </g>
    <path id="Path_649" data-name="Path 649" d="M331,0V9.06a1.294,1.294,0,0,0,1.294,1.294h9.06Z" transform="translate(-246.703)" fill="#ff9d21"/>
  </g>
</svg>
