<svg xmlns="http://www.w3.org/2000/svg" width="33.6" height="22.586" viewBox="0 0 33.6 22.586">
  <g id="Group_101" data-name="Group 101" transform="translate(-68.4 -394.014)">
    <path id="Path_4" data-name="Path 4" d="M78.349,339.157v-8.639h-2.3V339.3a3.318,3.318,0,0,1-3.313,3.313H54.858v5.911h2.957a3.938,3.938,0,1,1,7.877,0h9.7a3.939,3.939,0,0,1,7.878,0h2.957v-9.37H78.349Z" transform="translate(15.772 66.104)" fill="#ff8000"/>
    <path id="Path_5" data-name="Path 5" d="M74.467,339.171h7.84l-3.584-8.96H74.467Z" transform="translate(19.693 66.042)" fill="#ff8000"/>
    <rect id="Rectangle_10" data-name="Rectangle 10" width="1.969" height="1.97" transform="translate(94.121 394.65)" fill="#ff8000"/>
    <circle id="Ellipse_1" data-name="Ellipse 1" cx="1.97" cy="1.97" r="1.97" transform="translate(75.554 412.66)" fill="#ff8000"/>
    <circle id="Ellipse_2" data-name="Ellipse 2" cx="1.97" cy="1.97" r="1.97" transform="translate(93.134 412.66)" fill="#ff8000"/>
    <path id="Path_6" data-name="Path 6" d="M67.53,328.345v12.737H70.2a1.347,1.347,0,0,0,1.345-1.345V329.69a1.346,1.346,0,0,0-1.345-1.345Z" transform="translate(18.306 65.669)" fill="#ff8000"/>
    <path id="Path_7" data-name="Path 7" d="M56.36,328.345h14v12.736h-14L55.8,334.5Z" transform="translate(15.96 65.669)" fill="#ff8000"/>
    <path id="Path_8" data-name="Path 8" d="M57.015,328.345h-2.67A1.346,1.346,0,0,0,53,329.69v10.046a1.347,1.347,0,0,0,1.345,1.345h2.67Z" transform="translate(15.4 65.669)" fill="#ff8000"/>
  </g>
</svg>
