<svg xmlns="http://www.w3.org/2000/svg" width="28.286" height="18" viewBox="0 0 28.286 18">
  <path id="Path_13" data-name="Path 13" d="M58.429,554.285a4.824,4.824,0,0,1,1.285.128,5.3,5.3,0,0,0-2.572,4.372V562H49.428v-3.215C49.429,555.828,55.471,554.285,58.429,554.285Zm10.285,0c2.957,0,9,1.543,9,4.5V562h-18v-3.215C59.714,555.828,65.758,554.285,68.714,554.285Zm0-2.57a3.857,3.857,0,1,1,3.857-3.858A3.789,3.789,0,0,1,68.714,551.715Zm-10.285,0a3.857,3.857,0,1,1,3.857-3.858A3.789,3.789,0,0,1,58.429,551.715Z" transform="translate(-49.428 -544)" fill="#ff8000"/>
</svg>
