<svg xmlns="http://www.w3.org/2000/svg" width="112.775" height="123.6" viewBox="0 0 112.775 123.6">
  <g id="Group_106" data-name="Group 106" transform="translate(-908.4 -848.4)">
    <path id="Path_94" data-name="Path 94" d="M753,758.8a4.8,4.8,0,0,1,4.8-4.8h36a4.8,4.8,0,0,1,4.8,4.8v57.6a4.8,4.8,0,0,1-4.8,4.8h-36a4.8,4.8,0,0,1-4.8-4.8Z" transform="translate(155.4 150.8)" fill="#c4c4c4"/>
    <rect id="Rectangle_55" data-name="Rectangle 55" width="71.921" height="115.534" transform="translate(943.242 852.185)" fill="#766e6e"/>
    <path id="Path_95" data-name="Path 95" d="M837.76,709.453v99.575a5.224,5.224,0,0,1-5.226,5.225h-50.5v10.734h71.921V709.453Z" transform="translate(161.207 141.891)" fill="#5b5555"/>
    <path id="Path_96" data-name="Path 96" d="M855.735,717.424H782.959a5.06,5.06,0,0,1-5.06-5.059v-.3a5.06,5.06,0,0,1,5.06-5.06h72.775a5.061,5.061,0,0,1,5.06,5.06v.3A5.059,5.059,0,0,1,855.735,717.424Z" transform="translate(160.38 141.4)" fill="#b9acac"/>
    <path id="Path_97" data-name="Path 97" d="M855.735,811.737H782.959a5.06,5.06,0,0,1-5.06-5.06v-.3a5.06,5.06,0,0,1,5.06-5.059h72.775a5.061,5.061,0,0,1,5.06,5.059v.3A5.06,5.06,0,0,1,855.735,811.737Z" transform="translate(160.38 160.263)" fill="#b9acac"/>
    <path id="Path_98" data-name="Path 98" d="M855.735,787.126H782.959a5.06,5.06,0,0,1-5.06-5.06v-.3a5.061,5.061,0,0,1,5.06-5.06h72.775a5.062,5.062,0,0,1,5.06,5.06v.3A5.06,5.06,0,0,1,855.735,787.126Z" transform="translate(160.38 155.34)" fill="#b9acac"/>
    <path id="Path_99" data-name="Path 99" d="M855.735,741H782.959a5.06,5.06,0,0,1-5.06-5.06v-.3a5.061,5.061,0,0,1,5.06-5.06h72.775a5.062,5.062,0,0,1,5.06,5.06v.3A5.06,5.06,0,0,1,855.735,741Z" transform="translate(160.38 146.116)" fill="#b9acac"/>
    <path id="Path_100" data-name="Path 100" d="M855.582,707h-7.674a5.211,5.211,0,0,1-5.21,5.213H777.9a5.212,5.212,0,0,0,5.212,5.212h72.472a5.212,5.212,0,0,0,0-10.424Z" transform="translate(160.38 141.4)" fill="#9e9797"/>
    <path id="Path_101" data-name="Path 101" d="M855.582,801.313h-7.674a5.212,5.212,0,0,1-5.21,5.213H777.9a5.212,5.212,0,0,0,5.212,5.212h72.472a5.212,5.212,0,0,0,0-10.424Z" transform="translate(160.38 160.263)" fill="#9e9797"/>
    <path id="Path_102" data-name="Path 102" d="M855.582,776.7h-7.674a5.211,5.211,0,0,1-5.21,5.213H777.9a5.211,5.211,0,0,0,5.212,5.212h72.472a5.212,5.212,0,0,0,0-10.424Z" transform="translate(160.38 155.34)" fill="#9e9797"/>
    <path id="Path_103" data-name="Path 103" d="M855.582,730.578h-7.674a5.211,5.211,0,0,1-5.21,5.213H777.9A5.213,5.213,0,0,0,783.11,741h72.472a5.213,5.213,0,0,0,0-10.426Z" transform="translate(160.38 146.116)" fill="#9e9797"/>
    <circle id="Ellipse_12" data-name="Ellipse 12" cx="17.622" cy="17.622" r="17.622" transform="translate(961.11 892)" fill="#ffd500"/>
    <path id="Path_104" data-name="Path 104" d="M819.872,763.811a7.08,7.08,0,0,1-14.16,0c0-3.2,4.744-11.924,6.464-14.983a.705.705,0,0,1,1.23,0C815.128,751.887,819.872,760.61,819.872,763.811Z" transform="translate(165.942 149.694)" fill="#766e6e"/>
    <path id="Path_105" data-name="Path 105" d="M813.288,748.828a.705.705,0,0,0-1.23,0c-.14.25-.3.542-.48.863,1.92,3.733,4.04,8.34,4.04,10.48a7.08,7.08,0,0,1-9.323,6.715,7.081,7.081,0,0,0,13.459-3.074C819.755,760.61,815.012,751.887,813.288,748.828Z" transform="translate(166.059 149.694)" fill="#5b5555"/>
    <path id="Path_106" data-name="Path 106" d="M812.046,743.333a17.791,17.791,0,0,0-2.609.193,17.622,17.622,0,0,1,0,34.855,17.621,17.621,0,1,0,2.609-35.048Z" transform="translate(166.687 148.667)" fill="#fbc700"/>
  </g>
</svg>
