<svg xmlns="http://www.w3.org/2000/svg" width="175.202" height="87.599" viewBox="0 0 175.202 87.599">
  <g id="Group_104" data-name="Group 104" transform="translate(-1591.2 -546.001)">
    <path id="Path_74" data-name="Path 74" d="M1341.118,520.257h151V500.349H1334.17v7.318Z" transform="translate(271.634 100.07)" fill="#363532"/>
    <path id="Path_75" data-name="Path 75" d="M1322.072,526.01h28.648v-4.261c0-6.443,5.518-11.669,12.324-11.669h13.375v-46.7a5.211,5.211,0,0,0-5.346-5.063h-27.167a12.046,12.046,0,0,0-11.626,8.248l-10.212,28.028L1322,511.166l1.615,1.463v2.928l-1.547.893v9.559h0Z" transform="translate(269.2 91.664)" fill="#f9a11b"/>
    <rect id="Rectangle_41" data-name="Rectangle 41" width="6.637" height="39.82" transform="translate(1645.62 564.581)" fill="#363532"/>
    <path id="Path_76" data-name="Path 76" d="M1376.42,462.742l-4.5.226.126,43.5a21.817,21.817,0,0,0-23.986,8.291c-1.8,2.41-3.11,6.71-6.19,7.234a82.173,82.173,0,0,1-19.866.5v2.634l28.626-.019s-1.744-13.579,15.7-14.724a89.782,89.782,0,0,0,10.09-1.054V462.74h0Z" transform="translate(269.2 92.548)" fill="#de7126"/>
    <path id="Path_77" data-name="Path 77" d="M1330.07,491.98h15.647a2.815,2.815,0,0,0,2.815-2.815v-12.3a2.817,2.817,0,0,0-2.815-2.818h-12.27a2.815,2.815,0,0,0-2.717,2.072l-3.377,12.3A2.812,2.812,0,0,0,1330.07,491.98Z" transform="translate(270.25 94.809)" fill="#363532"/>
    <path id="Path_78" data-name="Path 78" d="M1342.03,520.1h4.183c0-4.892,1.682-8.975,4.868-11.806a16.265,16.265,0,0,1,10.866-3.929c7.579,0,15.736,4.925,15.736,15.734h4.183c0-13.075-10.022-19.918-19.92-19.918S1342.03,507.024,1342.03,520.1Z" transform="translate(273.206 100.037)" fill="#ffc808"/>
    <path id="Path_79" data-name="Path 79" d="M1428.01,520.1h4.183c0-4.892,1.682-8.975,4.866-11.806a16.28,16.28,0,0,1,10.868-3.929c7.577,0,15.736,4.925,15.736,15.734h4.183c0-13.075-10.02-19.918-19.92-19.918S1428.01,507.024,1428.01,520.1Z" transform="translate(290.402 100.037)" fill="#6a6964"/>
    <path id="Path_80" data-name="Path 80" d="M1379.294,509.419h100.427c4.153,0,7.524-4.991,7.524-11.144V466.143c0-6.154-3.371-11.142-7.524-11.142H1379.294c-4.153,0-7.524,4.988-7.524,11.142v32.131C1371.77,504.427,1375.142,509.419,1379.294,509.419Z" transform="translate(279.154 91)" fill="#f9a11b"/>
    <rect id="Rectangle_42" data-name="Rectangle 42" width="33.182" height="21.236" transform="translate(1650.924 583.164)" fill="#f9a11b"/>
    <rect id="Rectangle_43" data-name="Rectangle 43" width="26.953" height="44.976" transform="translate(1653.66 556.896)" fill="#de7126"/>
    <rect id="Rectangle_44" data-name="Rectangle 44" width="24.268" height="42.13" transform="translate(1654.92 558.462)" fill="#e3e3dd"/>
    <circle id="Ellipse_6" data-name="Ellipse 6" cx="12.568" cy="12.568" r="12.568" transform="translate(1725.764 608.465)" fill="#1b1a19"/>
    <circle id="Ellipse_7" data-name="Ellipse 7" cx="6.631" cy="6.631" r="6.631" transform="translate(1731.701 614.401)" fill="#9d9c95"/>
    <circle id="Ellipse_8" data-name="Ellipse 8" cx="5.08" cy="5.08" r="5.08" transform="translate(1733.252 615.953)" fill="#e3e3dd"/>
    <circle id="Ellipse_9" data-name="Ellipse 9" cx="12.568" cy="12.568" r="12.568" transform="translate(1622.588 608.465)" fill="#1b1a19"/>
    <circle id="Ellipse_10" data-name="Ellipse 10" cx="6.631" cy="6.631" r="6.631" transform="translate(1628.525 614.401)" fill="#9d9c95"/>
    <circle id="Ellipse_11" data-name="Ellipse 11" cx="5.08" cy="5.08" r="5.08" transform="translate(1630.076 615.953)" fill="#e3e3dd"/>
    <path id="Path_81" data-name="Path 81" d="M1462.47,503.666a3.319,3.319,0,0,1,6.638,0v13.273a3.319,3.319,0,0,1-6.638,0Z" transform="translate(297.294 100.07)" fill="#363532"/>
    <rect id="Rectangle_45" data-name="Rectangle 45" width="3.982" height="10.619" transform="translate(1591.2 599.09)" fill="#f9a11b"/>
  </g>
</svg>
