<svg xmlns="http://www.w3.org/2000/svg" width="123.825" height="126" viewBox="0 0 123.825 126">
  <g id="Group_105" data-name="Group 105" transform="translate(-1652.4 -840)">
    <path id="Path_82" data-name="Path 82" d="M1446.86,777.845h-13.033l-6.518,4.345-8.688-2.173-8.69,2.173-6.518-4.345h-13.033A17.373,17.373,0,0,0,1373,795.223v15.208h91.241V795.224A17.38,17.38,0,0,0,1446.86,777.845Z" transform="translate(279.4 155.569)" fill="#5d9cec"/>
    <path id="Path_83" data-name="Path 83" d="M1453.374,777.845a4.345,4.345,0,1,1-4.343,4.345A4.33,4.33,0,0,1,1453.374,777.845Z" transform="translate(294.606 155.569)" fill="#aab2bd"/>
    <path id="Path_84" data-name="Path 84" d="M1437.448,772.414h37.626a21.491,21.491,0,0,1,2.869,9.6,23.92,23.92,0,0,0-17.336,22.528v.023a21.95,21.95,0,0,1-8.69,0,23.849,23.849,0,0,0-17.334-22.55A21.624,21.624,0,0,1,1437.448,772.414Zm18.816,6.517a4.345,4.345,0,1,0,4.345,4.345A4.345,4.345,0,0,0,1456.264,778.931Z" transform="translate(291.716 154.483)" fill="#545c66"/>
    <path id="Path_85" data-name="Path 85" d="M1435.636,786.173a21.724,21.724,0,1,0,43.447,0c0-.434-.021-.847-.042-1.26a21.717,21.717,0,0,0-43.363,0C1435.66,785.326,1435.636,785.739,1435.636,786.173Zm-6.516,0a28.609,28.609,0,0,1,.325-4.345,28.307,28.307,0,1,1-.325,4.345Z" transform="translate(290.624 151.586)" fill="#656d78"/>
    <path id="Path_86" data-name="Path 86" d="M1449.032,726.07V739.1l-8.69-8.689s-10.861,6.517-23.895,6.517-23.9-6.517-23.9-6.517l-8.69,8.689V728.241A28.213,28.213,0,0,1,1412.1,700h21.725v10.862A15.19,15.19,0,0,1,1449.032,726.07Z" transform="translate(281.572 140)" fill="#1e1e1e"/>
    <path id="Path_87" data-name="Path 87" d="M1442.153,739.1V726.07a15.2,15.2,0,0,0-15.206-15.208V700h-8.69v10.862a8.69,8.69,0,0,0,8.69,8.689,6.525,6.525,0,0,1,6.516,6.518v4.344Z" transform="translate(288.451 140)" fill="#070707"/>
    <path id="Path_88" data-name="Path 88" d="M1449.032,734.034v13.034a32.586,32.586,0,1,1-65.172,0V734.034l8.69-8.689s10.861,6.517,23.9,6.517,23.894-6.517,23.894-6.517Z" transform="translate(281.572 145.069)" fill="#eac6bb"/>
    <path id="Path_89" data-name="Path 89" d="M1435.637,725.345l-.007,0v21.72a32.543,32.543,0,0,1-28.237,32.291,33.1,33.1,0,0,0,4.35.3,32.566,32.566,0,0,0,32.585-32.586V734.035Z" transform="translate(286.279 145.069)" fill="#d3b1a9"/>
    <path id="Path_90" data-name="Path 90" d="M1428.759,767.472V779.92l-6.518,4.345-8.688-2.173-8.69,2.173-6.518-4.345V767.472a32.646,32.646,0,0,0,30.415,0Z" transform="translate(284.469 153.494)" fill="#87bcf4"/>
    <path id="Path_91" data-name="Path 91" d="M1411.434,791.242a2.173,2.173,0,0,1-.025-4.346h.025a2.173,2.173,0,0,1,0,4.346Z" transform="translate(286.65 157.379)" fill="#87bcf4"/>
    <path id="Path_92" data-name="Path 92" d="M1411.434,800.293a2.173,2.173,0,0,1-.025-4.346h.025a2.173,2.173,0,0,1,0,4.346Z" transform="translate(286.65 159.189)" fill="#87bcf4"/>
  </g>
</svg>
