<svg xmlns="http://www.w3.org/2000/svg" width="26.4" height="25.2" viewBox="0 0 26.4 25.2">
  <g id="Group_102" data-name="Group 102" transform="translate(-67.2 -480)">
    <path id="Path_9" data-name="Path 9" d="M52,401.2a1.2,1.2,0,0,1,1.2-1.2h9.6a1.2,1.2,0,0,1,1.2,1.2v18a1.2,1.2,0,0,1-1.2,1.2H53.2a1.2,1.2,0,0,1-1.2-1.2Z" transform="translate(15.2 80)" fill="#ff8000"/>
    <path id="Path_10" data-name="Path 10" d="M64,401.2a1.2,1.2,0,0,1,1.2-1.2h9.6a1.2,1.2,0,0,1,1.2,1.2v9.6a1.2,1.2,0,0,1-1.2,1.2H65.2a1.2,1.2,0,0,1-1.2-1.2Z" transform="translate(17.6 80)" fill="#ff8000"/>
    <path id="Path_11" data-name="Path 11" d="M64,413.2a1.2,1.2,0,0,1,1.2-1.2h9.6a1.2,1.2,0,0,1,1.2,1.2v8.4a1.2,1.2,0,0,1-1.2,1.2H65.2a1.2,1.2,0,0,1-1.2-1.2Z" transform="translate(17.6 82.4)" fill="#ff8000"/>
  </g>
</svg>
