<svg xmlns="http://www.w3.org/2000/svg" width="140.93" height="140.947" viewBox="0 0 140.93 140.947">
  <g id="crane" transform="translate(0 16.515)">
    <path id="Path_582" data-name="Path 582" d="M426.717,120.558a13.045,13.045,0,0,1-9.615-4.178,4,4,0,0,1,5.966-5.342,5.141,5.141,0,0,0,3.649,1.513,4.538,4.538,0,1,0,0-9.076,4,4,0,0,1-4-4V84.523a4,4,0,0,1,8.008,0v11.6a12.546,12.546,0,0,1-4,24.436Z" transform="translate(-305.017 -71.133)" fill="#05303d"/>
    <path id="Path_583" data-name="Path 583" d="M187.518,36.571l-85.4,54.966a4,4,0,0,1-2.167.638H85a4.005,4.005,0,0,1-4-4V73.223a4,4,0,0,1,2.037-3.486c59.285-33.47,35.425-20,95-53.634a4,4,0,0,1,5.7,2.026l5.339,13.613a4.006,4.006,0,0,1-1.559,4.829Z" transform="translate(-59.379 -23.531)" fill="#0a789b"/>
    <path id="Path_584" data-name="Path 584" d="M315.805,36.571,256,75.065V44.515L306.329,16.1a4,4,0,0,1,5.7,2.026l5.339,13.613A4.006,4.006,0,0,1,315.805,36.571Z" transform="translate(-187.666 -23.531)" fill="#08475e"/>
    <path id="Path_585" data-name="Path 585" d="M70.119,310.494,21,310.483a4,4,0,0,1-4-4v-12.4a4,4,0,0,1,4-4H59.372l13.579,13.579A4.008,4.008,0,0,1,70.119,310.494Z" transform="translate(-12.462 -224.755)" fill="#ffb454"/>
    <ellipse id="Ellipse_18" data-name="Ellipse 18" cx="14.691" cy="14.691" rx="14.691" ry="14.691" transform="translate(102.528 -5.262) rotate(-22.514)" fill="#5e69e2"/>
    <path id="Path_586" data-name="Path 586" d="M395,269.327,381.924,243.7a4,4,0,0,0-3.566-2.184H357a4,4,0,0,0-4,4v25.625a4,4,0,0,0,4,4h34.434A4.006,4.006,0,0,0,395,269.327Z" transform="translate(-258.775 -189.157)" fill="#e0eaef"/>
    <path id="Path_587" data-name="Path 587" d="M136.664,271.148a3.991,3.991,0,0,0-.435-1.82L123.15,243.7a4,4,0,0,0-3.566-2.183H98.229a4.005,4.005,0,0,0-4,4v25.625H4.41L.123,288a4.013,4.013,0,0,0,.886,3.646l8.809,9.919a4,4,0,0,0,2.995,1.345H125.99a4.012,4.012,0,0,0,2.773-1.116l6.673-6.406a4.012,4.012,0,0,0,1.231-2.888C136.667,270.893,136.691,271.148,136.664,271.148Zm-34.431-4V249.527h14.9l8.99,17.617Z" transform="translate(0 -189.157)" fill="#ffdd54"/>
    <path id="Path_588" data-name="Path 588" d="M324.331,271.148a3.991,3.991,0,0,0-.435-1.82L310.816,243.7a4,4,0,0,0-3.566-2.183H285.9a4.005,4.005,0,0,0-4,4v25.625H256v31.764h57.656a4.012,4.012,0,0,0,2.773-1.116l6.673-6.406a4.012,4.012,0,0,0,1.231-2.888C324.333,270.893,324.358,271.148,324.331,271.148Zm-34.431-4V249.527h14.9l8.99,17.617Z" transform="translate(-187.667 -189.157)" fill="#ffb454"/>
    <path id="Path_589" data-name="Path 589" d="M102.035,401.519a14.638,14.638,0,0,0-10.677,4.621,14.681,14.681,0,1,0,0,20.121,14.677,14.677,0,1,0,10.677-24.742Z" transform="translate(-48.383 -306.449)" fill="#0a789b"/>
    <g id="Group_899" data-name="Group 899" transform="translate(25.625 95.07)">
      <circle id="Ellipse_19" data-name="Ellipse 19" cx="6.406" cy="6.406" r="6.406" transform="translate(0 8.275)" fill="#08475e"/>
      <circle id="Ellipse_20" data-name="Ellipse 20" cx="6.406" cy="6.406" r="6.406" transform="translate(21.354 8.275)" fill="#08475e"/>
      <circle id="Ellipse_21" data-name="Ellipse 21" cx="14.681" cy="14.681" r="14.681" transform="translate(64.33)" fill="#08475e"/>
    </g>
    <circle id="Ellipse_22" data-name="Ellipse 22" cx="6.406" cy="6.406" r="6.406" transform="translate(98.229 103.345)" fill="#05303d"/>
  </g>
</svg>
