<svg xmlns="http://www.w3.org/2000/svg" width="117.6" height="104.984" viewBox="0 0 117.6 104.984">
  <g id="Group_103" data-name="Group 103" transform="translate(-2049.6 -2280.908)">
    <path id="Path_59" data-name="Path 59" d="M857.7,544.924l-9.239-50.9a1.727,1.727,0,0,0-.858-1.2l-23.255-12.932a1.717,1.717,0,0,0-.973-.21l4.23,54.575-.14.064L855.292,546.8a1.712,1.712,0,0,0,.706.151,1.726,1.726,0,0,0,1.7-2.032Z" transform="translate(1309.475 1838.935)" fill="#44c868"/>
    <path id="Path_60" data-name="Path 60" d="M807.779,492.255,784,479.867a1.722,1.722,0,0,0-.912-.188,1.72,1.72,0,0,1,.248,0l-4.23,54.575,27.971,12.55a1.739,1.739,0,0,0,.708.151v-54.7Z" transform="translate(1300.621 1838.935)" fill="#44c868"/>
    <path id="Path_62" data-name="Path 62" d="M827.448,479.679a1.719,1.719,0,0,0-.666.188L803,492.254v54.7h0a1.733,1.733,0,0,0,.706-.151l27.973-12.55Z" transform="translate(1305.4 1838.936)" fill="#4ce166"/>
    <path id="Path_63" data-name="Path 63" d="M759.7,506.826l-1.877,10.342,27.791-14.68.644-8.323.108-1.381Z" transform="translate(1296.365 1841.557)" fill="#ffdb56"/>
    <path id="Path_65" data-name="Path 65" d="M807.41,496.456l-25.674-3.672-.752,9.7L807.4,542.61v-14.59L791.638,503.2l15.773,1.886Z" transform="translate(1300.997 1841.557)" fill="#ffbb24"/>
    <path id="Path_69" data-name="Path 69" d="M816.057,472.382a8.941,8.941,0,1,1-8.941-8.934A8.938,8.938,0,0,1,816.057,472.382Zm-8.941-24.125a24.162,24.162,0,0,0-24.144,24.125c0,8.228,3.906,17.064,11.612,26.258a82.443,82.443,0,0,0,11.474,11.279,1.732,1.732,0,0,0,2.114,0,82.488,82.488,0,0,0,11.476-11.279c7.706-9.194,11.614-18.029,11.614-26.258A24.164,24.164,0,0,0,807.116,448.257Z" transform="translate(1301.394 1832.651)" fill="#ff4a4a"/>
    <path id="Path_71" data-name="Path 71" d="M803.706,538.311l10.4-4.667L803,522.148v16.314h0A1.733,1.733,0,0,0,803.706,538.311Z" transform="translate(1305.4 1847.43)" fill="#ffdb56"/>
    <path id="Path_72" data-name="Path 72" d="M848.241,492a1.727,1.727,0,0,0-.858-1.2l-1.832-1.019-21.091,4.7,30.7,35.629Z" transform="translate(1309.692 1840.957)" fill="#1ea4e9"/>
    <path id="Path_61" data-name="Path 61" d="M788.352,479.681a1.719,1.719,0,0,0-.973.21l-23.255,12.932a1.723,1.723,0,0,0-.858,1.2l-9.239,50.9a1.727,1.727,0,0,0,2.406,1.883l27.678-12.418Z" transform="translate(1295.6 1838.935)" fill="#4ce166"/>
    <path id="Path_64" data-name="Path 64" d="M786.63,498.182l-.25,3.227L758.59,516.087l-4.562,25.134a1.727,1.727,0,0,0,2.406,1.883l27.678-12.418Z" transform="translate(1295.6 1842.636)" fill="#a8eefc"/>
    <path id="Path_66" data-name="Path 66" d="M845.662,490.82l-11.172-6.214-10.576,2.471.133,1.709.521,6.737Z" transform="translate(1309.583 1839.921)" fill="#ffbb24"/>
    <path id="Path_67" data-name="Path 67" d="M829.689,507.21l-1-12.919-.59-7.626-25.09,11.015v8.627l16.39-7.127Z" transform="translate(1305.401 1840.333)" fill="#ffdb56"/>
    <path id="Path_68" data-name="Path 68" d="M857.481,542.118l-2.321-12.785-30.7-35.629.94,12.1,31.483,37.949A1.723,1.723,0,0,0,857.481,542.118Z" transform="translate(1309.692 1841.741)" fill="#ffbb24"/>
    <path id="Path_70" data-name="Path 70" d="M803.611,448.257a24.49,24.49,0,0,0-3.115.2,24.168,24.168,0,0,1,21.03,23.926c0,8.228-3.907,17.064-11.611,26.258a86.252,86.252,0,0,1-9.42,9.571c1.207,1.045,1.975,1.643,2.058,1.709a1.732,1.732,0,0,0,2.114,0,82.487,82.487,0,0,0,11.476-11.279c7.706-9.194,11.614-18.029,11.614-26.258A24.163,24.163,0,0,0,803.611,448.257Z" transform="translate(1304.899 1832.651)" fill="#e7343f"/>
    <path id="Path_73" data-name="Path 73" d="M807.78,542.718h0v-1.726L781.361,500.87l-2.26,29.146,27.971,12.55A1.717,1.717,0,0,0,807.78,542.718Z" transform="translate(1300.62 1843.174)" fill="#1ea4e9"/>
  </g>
</svg>
